<?xml version="1.0" encoding="UTF-8" standalone="no"?>
<!-- Created with Inkscape (http://www.inkscape.org/) -->

<svg
   xmlns:dc="http://purl.org/dc/elements/1.1/"
   xmlns:cc="http://creativecommons.org/ns#"
   xmlns:rdf="http://www.w3.org/1999/02/22-rdf-syntax-ns#"
   xmlns:svg="http://www.w3.org/2000/svg"
   xmlns="http://www.w3.org/2000/svg"
   xmlns:sodipodi="http://sodipodi.sourceforge.net/DTD/sodipodi-0.dtd"
   xmlns:inkscape="http://www.inkscape.org/namespaces/inkscape"
   width="210mm"
   height="297mm"
   viewBox="0 0 210 297"
   version="1.1"
   id="svg4518"
   inkscape:version="0.92.1 r15371"
   sodipodi:docname="1.svg">
  <defs
     id="defs4512" />
  <sodipodi:namedview
     id="base"
     pagecolor="#ffffff"
     bordercolor="#666666"
     borderopacity="1.0"
     inkscape:pageopacity="0.0"
     inkscape:pageshadow="2"
     inkscape:zoom="0.36703143"
     inkscape:cx="396.85039"
     inkscape:cy="561.25984"
     inkscape:document-units="mm"
     inkscape:current-layer="layer1"
     showgrid="false"
     inkscape:window-width="853"
     inkscape:window-height="623"
     inkscape:window-x="-8"
     inkscape:window-y="-8"
     inkscape:window-maximized="1"
     showguides="true"
     inkscape:guide-bbox="true" />
  <metadata
     id="metadata4515">
    <rdf:RDF>
      <cc:Work
         rdf:about="">
        <dc:format>image/svg+xml</dc:format>
        <dc:type
           rdf:resource="http://purl.org/dc/dcmitype/StillImage" />
        <dc:title></dc:title>
      </cc:Work>
    </rdf:RDF>
  </metadata>
  <g
     inkscape:label="Camada 1"
     inkscape:groupmode="layer"
     id="layer1">
    <g
       transform="matrix(0.01008248,0,0,-0.01008248,-3626.4436,-2185.8359)"
       id="g6515"
       style="fill:#ff0000;fill-opacity:1">
      <path
         d="m 372524.2,-220734.9 c 408.37,-102.1 1178.7,-408.38 1717,-677.53 863.15,-426.94 1085.9,-594 1911.9,-1420 761.06,-761.06 1002.4,-1076.6 1355.1,-1763.4 241.32,-464.06 529.03,-1150.9 649.69,-1531.4 204.19,-696.09 204.19,-696.09 241.31,-8046.8 27.85,-7295 27.85,-7360 -167.06,-7731.3 -222.75,-436.22 -686.81,-705.37 -1048.8,-612.56 -306.28,74.25 -779.62,473.34 -946.69,807.47 -92.81,176.34 -139.21,547.59 -139.21,1123 0,1420 -259.88,1986.2 -1104.5,2422.4 -928.13,464.06 -2376,297 -3146.3,-361.97 -612.56,-519.75 -696.09,-761.06 -761.06,-2106.8 -64.97,-1271.5 -157.78,-1531.4 -677.53,-1828.4 -213.47,-120.66 -278.44,-120.66 -566.16,18.56 -510.47,250.59 -640.4,603.28 -705.37,1893.4 -46.41,1039.5 -64.97,1150.9 -324.85,1568.5 -417.65,668.25 -1058.1,993.1 -2041.9,1048.8 -1327.2,74.25 -2366.7,-399.09 -2802.9,-1280.8 -176.35,-343.4 -213.47,-566.15 -213.47,-1299.4 0,-1030.2 -111.38,-1512.8 -426.94,-1828.4 -278.44,-278.43 -686.81,-241.31 -1039.5,92.82 -501.18,464.06 -482.62,167.06 -482.62,7712.7 0,7554.9 9.28,7684.9 501.18,9002.8 983.82,2608 3499,4566.4 6376.2,4974.7 946.68,129.94 2988.6,37.13 3842.4,-176.34 z"
         id="path6507"
         inkscape:connector-curvature="0"
         style="fill:#ff0000;fill-opacity:1"
         sodipodi:nodetypes="ccsccccccscccccccccsccscccc" />
    </g>
    <g
       style="fill:#000000;fill-opacity:1"
       id="g332"
       transform="matrix(0.01008248,0,0,-0.01008248,-3626.4436,-2185.8359)">
      <path
         style="fill:#000000;fill-opacity:1"
         inkscape:connector-curvature="0"
         id="path326"
         d="m 371550,-221670 c -139.22,-269.15 27.84,-529.03 389.81,-603.28 167.06,-37.12 640.41,-222.75 1048.8,-417.65 1689.2,-816.75 2849.3,-2208.9 3304.1,-3963.1 157.78,-621.85 176.35,-1039.5 176.35,-3508.3 0,-2051.2 27.84,-2821.5 111.37,-2905 167.06,-167.06 519.75,-129.94 631.12,64.97 120.66,241.31 120.66,4520 0,5615.2 -287.71,2505.9 -1921.2,4622.1 -4315.8,5596.6 -863.16,352.68 -1206.6,380.53 -1345.8,120.65 z" />
      <path
         style="fill:#000000;fill-opacity:1"
         inkscape:connector-curvature="0"
         id="path328"
         d="m 364780,-226790 c -1512.8,-464.06 -2125.4,-2301.8 -1188,-3536.2 816.75,-1067.3 2515.2,-1169.4 3415.5,-194.91 1290.1,1382.9 436.22,3619.7 -1447.9,3786.8 -259.87,18.56 -603.28,0 -779.62,-55.69 z m 1290.1,-872.44 c 891,-454.78 1058.1,-1717 306.28,-2366.7 -993.09,-881.72 -2441,-250.6 -2441,1067.3 0,853.87 575.44,1438.6 1420,1438.6 241.31,0 566.16,-64.97 714.66,-139.22 z" />
      <path
         style="fill:#000000;fill-opacity:1"
         inkscape:connector-curvature="0"
         id="path330"
         d="m 370580,-226770 c -464.06,-120.65 -835.31,-352.68 -1160.2,-714.65 -408.37,-473.35 -556.87,-863.16 -556.87,-1475.7 0,-1271.5 946.69,-2218.2 2227.5,-2218.2 1280.81,0 2227.5,946.69 2227.5,2218.2 0,863.16 -445.5,1605.6 -1215.8,1995.5 -389.81,204.18 -1123,297 -1522.1,194.9 z m 1253,-928.12 c 380.53,-194.91 742.49,-826.03 742.49,-1280.8 0,-1512.8 -2116.1,-2004.8 -2775.1,-640.41 -213.46,436.22 -241.31,751.78 -92.81,1141.6 111.38,306.29 519.75,761.07 779.63,863.16 334.12,139.22 1011.6,102.09 1345.8,-83.53 z" />
      <path
         style="fill:#000000;fill-opacity:1"
         inkscape:connector-curvature="0"
         id="path324"
         d="m 367930,-219120 c -2134.7,-473.34 -3768.2,-1373.6 -5151.1,-2840.1 -1104.5,-1178.7 -1819.1,-2459.5 -2255.3,-4074.5 l -241.32,-881.72 -37.12,-7267.2 c -27.84,-8019 -46.41,-7787 547.59,-8687.2 167.07,-250.59 519.75,-594 807.47,-779.62 445.5,-297 594,-343.41 1188,-371.25 853.87,-46.41 1382.9,176.34 1847,798.19 445.5,575.43 603.28,1169.4 603.28,2246.1 0,761.06 27.84,937.4 185.62,1141.6 352.69,445.5 1698.5,538.31 2023.3,129.94 46.41,-55.69 111.38,-566.16 139.22,-1132.3 64.97,-1253 232.03,-1754.2 788.91,-2376 547.59,-612.56 1002.4,-816.75 1772.7,-826.03 742.5,0 1271.5,232.03 1726.3,770.34 501.19,584.72 705.38,1243.7 770.34,2459.5 46.41,1039.5 46.41,1048.8 306.29,1188 389.81,194.9 1020.9,250.59 1290.1,111.37 222.75,-120.65 232.03,-176.34 287.72,-1206.6 46.4,-974.53 83.53,-1150.9 352.68,-1689.2 501.19,-1020.9 1290.1,-1559.2 2376,-1614.9 538.31,-27.84 742.5,0 1095.2,167.06 538.31,250.6 1030.2,788.91 1355.1,1475.7 l 241.31,519.75 v 7425 c 0,7387.9 0,7425 -204.19,8241.7 -464.06,1800.6 -1317.9,3294.8 -2598.7,4529.2 -1215.8,1178.7 -2394.6,1856.2 -4074.5,2366.7 -751.78,222.75 -983.81,250.59 -2682.3,278.44 -1382.9,27.84 -2014,0 -2459.5,-102.1 z m 4594.2,-1614.9 c 408.37,-102.1 1178.7,-408.38 1717,-677.53 863.15,-426.94 1085.9,-594 1911.9,-1420 761.06,-761.06 1002.4,-1076.6 1355.1,-1763.4 241.32,-464.06 529.03,-1150.9 649.69,-1531.4 204.19,-696.09 204.19,-696.09 241.31,-8046.8 27.85,-7295 27.85,-7360 -167.06,-7731.3 -222.75,-436.22 -686.81,-705.37 -1048.8,-612.56 -306.28,74.25 -779.62,473.34 -946.69,807.47 -92.81,176.34 -139.21,547.59 -139.21,1123 0,1420 -259.88,1986.2 -1104.5,2422.4 -928.13,464.06 -2376,297 -3146.3,-361.97 -612.56,-519.75 -696.09,-761.06 -761.06,-2106.8 -64.97,-1271.5 -157.78,-1531.4 -677.53,-1828.4 -213.47,-120.66 -278.44,-120.66 -566.16,18.56 -510.47,250.59 -640.4,603.28 -705.37,1893.4 -46.41,1039.5 -64.97,1150.9 -324.85,1568.5 -417.65,668.25 -1058.1,993.1 -2041.9,1048.8 -1327.2,74.25 -2366.7,-399.09 -2802.9,-1280.8 -176.35,-343.4 -213.47,-566.15 -213.47,-1299.4 0,-1030.2 -111.38,-1512.8 -426.94,-1828.4 -278.44,-278.43 -686.81,-241.31 -1039.5,92.82 -501.18,464.06 -482.62,167.06 -482.62,7712.7 0,7554.9 9.28,7684.9 501.18,9002.8 983.82,2608 3499,4566.4 6376.2,4974.7 946.68,129.94 2988.6,37.13 3842.4,-176.34 z" />
    </g>
  </g>
</svg>
